<?xml version="1.0" encoding="utf-8"?>
<!-- Generator: Adobe Illustrator 21.0.2, SVG Export Plug-In . SVG Version: 6.00 Build 0)  -->
<svg version="1.1" id="Calque_1" xmlns="http://www.w3.org/2000/svg" xmlns:xlink="http://www.w3.org/1999/xlink" x="0px" y="0px"
	 viewBox="0 0 314.1 136.1" style="enable-background:new 0 0 314.1 136.1;" xml:space="preserve">
<style type="text/css">
	.st0{display:none;}
	.st1{display:inline;fill:#5D5D5C;}
	.st2{fill:#FFFFFF;}
	.st3{fill:#7B98BC;}
	.st4{fill:#B8B8B9;}
</style>
<g>
	<g>
		<g class="st0">
			<path class="st1" d="M259.6,293.9c-1.6,0-2.9-1.3-2.9-2.9v-21.9c0-7-5.7-12.7-12.7-12.7h-8.7c-1.6,0-2.9-1.3-2.9-2.9
				c0-1.6,1.3-2.9,2.9-2.9h8.7c10.2,0,18.5,8.3,18.5,18.5V291C262.6,292.6,261.3,293.9,259.6,293.9z"/>
			<path class="st1" d="M227,293.9c-1.6,0-2.9-1.3-2.9-2.9v-61.8c0-1.6,1.3-2.9,2.9-2.9c1.6,0,2.9,1.3,2.9,2.9V291
				C229.9,292.6,228.6,293.9,227,293.9z"/>
		</g>
	</g>
</g>
<g>
	<g>
		<g>
			<path class="st2" d="M50.9,113.4c-0.1-0.1-0.1-0.2-0.1-0.3v-9.6c0-0.1,0-0.2,0.1-0.3c0.1-0.1,0.2-0.1,0.4-0.1h5.5
				c0.1,0,0.2,0,0.3,0.1s0.1,0.2,0.1,0.3s0,0.2-0.1,0.3c-0.1,0.1-0.2,0.1-0.3,0.1h-5.1v4h4.8c0.1,0,0.2,0,0.3,0.1s0.1,0.2,0.1,0.3
				s0,0.2-0.1,0.3c-0.1,0.1-0.2,0.1-0.3,0.1h-4.8v4.5c0,0.1,0,0.3-0.1,0.4s-0.2,0.1-0.3,0.1C51.1,113.5,51,113.4,50.9,113.4z"/>
			<path class="st2" d="M59.2,113.3c-0.1-0.1-0.1-0.2-0.1-0.3v-9.7c0-0.1,0-0.3,0.1-0.3c0.1-0.1,0.2-0.1,0.3-0.1s0.3,0,0.3,0.1
				c0.1,0.1,0.1,0.2,0.1,0.4v9.3H65c0.1,0,0.2,0,0.3,0.1c0.1,0.1,0.1,0.2,0.1,0.3c0,0.1,0,0.2-0.1,0.3c-0.1,0.1-0.2,0.1-0.3,0.1
				h-5.5C59.4,113.4,59.2,113.4,59.2,113.3z"/>
			<path class="st2" d="M67.5,112.5c-0.7-0.7-1-1.7-1-3.1v-6c0-0.1,0-0.3,0.1-0.4s0.2-0.1,0.3-0.1c0.1,0,0.3,0,0.3,0.1
				c0.1,0.1,0.1,0.2,0.1,0.4v6.2c0,2.2,1.1,3.2,3.2,3.2c1,0,1.8-0.3,2.4-0.8c0.5-0.5,0.8-1.4,0.8-2.4v-6.2c0-0.1,0-0.3,0.1-0.3
				c0.1-0.1,0.2-0.1,0.3-0.1s0.2,0,0.3,0.1s0.1,0.2,0.1,0.4v6c0,1.4-0.3,2.4-1,3.1s-1.7,1.1-3,1.1C69.2,113.5,68.2,113.2,67.5,112.5
				z"/>
			<path class="st2" d="M77.4,113.4c-0.1-0.1-0.1-0.2-0.1-0.3v-9.7c0-0.1,0-0.3,0.1-0.3c0.1-0.1,0.2-0.1,0.3-0.1s0.3,0,0.3,0.1
				c0.1,0.1,0.1,0.2,0.1,0.3v9.7c0,0.1,0,0.3-0.1,0.3c-0.1,0.1-0.2,0.1-0.3,0.1S77.5,113.4,77.4,113.4z"/>
			<path class="st2" d="M81.1,113.3c-0.1-0.1-0.1-0.2-0.1-0.3v-9.6c0-0.1,0-0.2,0.1-0.3c0.1-0.1,0.2-0.1,0.4-0.1h2.9
				c1.7,0,2.9,0.5,3.9,1.4c0.9,0.9,1.4,2.2,1.4,3.9s-0.5,3-1.4,3.9s-2.2,1.4-3.9,1.4h-2.9C81.3,113.4,81.2,113.4,81.1,113.3z
				 M84.3,112.6c2.9,0,4.3-1.5,4.3-4.5s-1.4-4.4-4.3-4.4h-2.4v8.9H84.3z"/>
			<path class="st2" d="M92,113.3c-0.1-0.1-0.1-0.2-0.1-0.3v-9.6c0-0.1,0-0.2,0.1-0.3c0.1-0.1,0.2-0.1,0.4-0.1h5.7
				c0.1,0,0.2,0,0.3,0.1c0.1,0.1,0.1,0.2,0.1,0.3c0,0.1,0,0.2-0.1,0.3c-0.1,0.1-0.2,0.1-0.3,0.1h-5.2v4h4.9c0.1,0,0.2,0,0.3,0.1
				c0.1,0.1,0.1,0.2,0.1,0.3s0,0.2-0.1,0.3c-0.1,0.1-0.2,0.1-0.3,0.1h-4.9v4.1h5.2c0.1,0,0.2,0,0.3,0.1c0.1,0.1,0.1,0.2,0.1,0.3
				c0,0.1,0,0.2-0.1,0.3c-0.1,0.1-0.2,0.1-0.3,0.1h-5.7C92.2,113.4,92.1,113.4,92,113.3z"/>
			<path class="st2" d="M101.4,113.2c-0.7-0.2-1.2-0.5-1.6-0.9c-0.1-0.1-0.2-0.3-0.2-0.4s0-0.2,0.1-0.3c0.1-0.1,0.1-0.1,0.2-0.1
				s0.2,0.1,0.3,0.1c0.9,0.8,2,1.2,3.3,1.2c0.9,0,1.6-0.2,2.1-0.5c0.5-0.4,0.7-0.9,0.7-1.5c0-0.4-0.1-0.7-0.4-0.9
				c-0.2-0.2-0.5-0.4-0.9-0.6c-0.4-0.1-0.9-0.3-1.5-0.4c-0.8-0.2-1.5-0.4-2-0.6s-0.9-0.5-1.3-0.9c-0.3-0.4-0.5-0.9-0.5-1.5
				s0.2-1.1,0.5-1.6s0.8-0.8,1.3-1.1c0.6-0.2,1.2-0.4,2-0.4c0.7,0,1.3,0.1,1.9,0.3c0.6,0.2,1.1,0.5,1.5,1c0.1,0.1,0.2,0.3,0.2,0.4
				s0,0.2-0.1,0.3c-0.1,0.1-0.1,0.1-0.2,0.1s-0.2,0-0.3-0.1c-0.5-0.4-1-0.7-1.5-0.9c-0.4-0.2-0.9-0.3-1.5-0.3
				c-0.9,0-1.6,0.2-2.1,0.6s-0.7,0.9-0.7,1.6c0,0.4,0.1,0.7,0.3,1c0.2,0.3,0.5,0.5,0.9,0.6s0.8,0.3,1.4,0.4l0.4,0.1
				c0.8,0.2,1.4,0.4,1.9,0.6s0.9,0.4,1.2,0.8c0.3,0.4,0.5,0.8,0.5,1.4s-0.2,1.1-0.5,1.5s-0.8,0.8-1.3,1c-0.6,0.2-1.2,0.4-2,0.4
				C102.8,113.5,102.1,113.4,101.4,113.2z"/>
		</g>
		<path class="st3" d="M112.9,108.8c-0.1-0.1-0.2-0.3-0.2-0.5s0.1-0.4,0.2-0.5s0.3-0.2,0.5-0.2s0.4,0.1,0.5,0.2s0.2,0.3,0.2,0.5
			s-0.1,0.4-0.2,0.5s-0.3,0.2-0.5,0.2C113.2,109,113,109,112.9,108.8z"/>
		<g>
			<path class="st2" d="M120.3,113.3c-0.1-0.1-0.1-0.2-0.1-0.3v-9.6c0-0.1,0-0.2,0.1-0.3c0.1-0.1,0.2-0.1,0.4-0.1h5.7
				c0.1,0,0.2,0,0.3,0.1s0.1,0.2,0.1,0.3c0,0.1,0,0.2-0.1,0.3c-0.1,0.1-0.2,0.1-0.3,0.1h-5.2v4h4.9c0.1,0,0.2,0,0.3,0.1
				s0.1,0.2,0.1,0.3s0,0.2-0.1,0.3c-0.1,0.1-0.2,0.1-0.3,0.1h-4.9v4.1h5.2c0.1,0,0.2,0,0.3,0.1s0.1,0.2,0.1,0.3c0,0.1,0,0.2-0.1,0.3
				c-0.1,0.1-0.2,0.1-0.3,0.1h-5.7C120.5,113.4,120.4,113.4,120.3,113.3z M123.6,102.1c-0.1,0-0.1,0-0.2-0.1s-0.1-0.1-0.1-0.2
				s0-0.1,0.1-0.2l1.5-1.7c0.1-0.1,0.3-0.2,0.4-0.2s0.2,0,0.3,0.1s0.1,0.2,0.1,0.3c0,0.2-0.1,0.3-0.3,0.5L123.6,102.1
				C123.7,102.1,123.6,102.1,123.6,102.1z"/>
			<path class="st2" d="M136.9,103c0.1,0.1,0.1,0.2,0.1,0.4v9.7c0,0.1,0,0.3-0.1,0.3c-0.1,0.1-0.2,0.1-0.3,0.1s-0.3-0.1-0.4-0.2
				l-6.5-8.8v8.5c0,0.1,0,0.3-0.1,0.3c-0.1,0.1-0.2,0.1-0.3,0.1s-0.3,0-0.3-0.1c-0.1-0.1-0.1-0.2-0.1-0.4v-9.7c0-0.1,0-0.3,0.1-0.3
				c0.1-0.1,0.2-0.1,0.4-0.1s0.3,0.1,0.4,0.2l6.5,8.8v-8.5c0-0.1,0-0.3,0.1-0.3c0.1-0.1,0.2-0.1,0.3-0.1
				C136.7,102.8,136.8,102.9,136.9,103z"/>
			<path class="st2" d="M139.8,113.3c-0.1-0.1-0.1-0.2-0.1-0.3v-9.6c0-0.1,0-0.2,0.1-0.3c0.1-0.1,0.2-0.1,0.4-0.1h5.7
				c0.1,0,0.2,0,0.3,0.1s0.1,0.2,0.1,0.3c0,0.1,0,0.2-0.1,0.3c-0.1,0.1-0.2,0.1-0.3,0.1h-5.2v4h4.9c0.1,0,0.2,0,0.3,0.1
				s0.1,0.2,0.1,0.3s0,0.2-0.1,0.3c-0.1,0.1-0.2,0.1-0.3,0.1h-4.9v4.1h5.2c0.1,0,0.2,0,0.3,0.1s0.1,0.2,0.1,0.3c0,0.1,0,0.2-0.1,0.3
				c-0.1,0.1-0.2,0.1-0.3,0.1h-5.7C140,113.4,139.9,113.4,139.8,113.3z"/>
			<path class="st2" d="M156.3,113.1c0,0.1,0,0.2-0.1,0.3s-0.2,0.1-0.3,0.1c-0.2,0-0.3-0.1-0.4-0.2l-2-3.2c-0.3-0.5-0.6-0.8-0.9-0.9
				c-0.3-0.2-0.7-0.3-1.3-0.3h-2v4.2c0,0.1,0,0.3-0.1,0.4s-0.2,0.1-0.3,0.1s-0.3,0-0.3-0.1c-0.1-0.1-0.1-0.2-0.1-0.4v-9.6
				c0-0.1,0-0.2,0.1-0.3c0.1-0.1,0.2-0.1,0.4-0.1h3.7c1.1,0,2,0.3,2.5,0.8c0.6,0.5,0.9,1.2,0.9,2.2c0,0.8-0.3,1.5-0.8,2
				s-1.2,0.8-2.1,0.9c0.2,0.1,0.5,0.2,0.7,0.4c0.2,0.2,0.4,0.4,0.6,0.8l1.8,3C156.2,113,156.3,113,156.3,113.1z M152.5,108.1
				c1.7,0,2.6-0.7,2.6-2.2c0-0.7-0.2-1.3-0.6-1.6c-0.4-0.4-1.1-0.5-2-0.5h-3.2v4.4L152.5,108.1L152.5,108.1z"/>
			<path class="st2" d="M166.4,108.2c0.1,0.1,0.1,0.2,0.1,0.3v3.9c0,0.3-0.1,0.4-0.3,0.5c-0.4,0.2-0.9,0.3-1.5,0.4s-1.2,0.2-1.8,0.2
				c-1,0-1.9-0.2-2.6-0.6c-0.7-0.4-1.3-1-1.7-1.8s-0.6-1.8-0.6-2.9s0.2-2.1,0.6-2.9c0.4-0.8,0.9-1.4,1.7-1.9
				c0.7-0.4,1.6-0.6,2.6-0.6c0.7,0,1.3,0.1,2,0.3c0.6,0.2,1.1,0.5,1.5,1c0.1,0.1,0.2,0.3,0.2,0.4s0,0.2-0.1,0.3
				c-0.1,0.1-0.1,0.1-0.2,0.1c-0.1,0-0.2,0-0.3-0.1c-0.5-0.4-1-0.7-1.5-0.9c-0.4-0.2-1-0.3-1.5-0.3c-1.2,0-2.2,0.4-2.9,1.2
				c-0.7,0.8-1,1.9-1,3.4s0.3,2.6,1,3.4s1.7,1.2,2.9,1.2c0.5,0,1,0,1.5-0.1s0.9-0.2,1.3-0.4v-3.4h-2.4c-0.1,0-0.2,0-0.3-0.1
				s-0.1-0.2-0.1-0.3c0-0.1,0-0.2,0.1-0.3c0.1-0.1,0.2-0.1,0.3-0.1h2.8C166.2,108,166.3,108.1,166.4,108.2z"/>
			<path class="st2" d="M169.2,113.4c-0.1-0.1-0.1-0.2-0.1-0.3v-9.7c0-0.1,0-0.3,0.1-0.3c0.1-0.1,0.2-0.1,0.3-0.1s0.3,0,0.3,0.1
				c0.1,0.1,0.1,0.2,0.1,0.3v9.7c0,0.1,0,0.3-0.1,0.3c-0.1,0.1-0.2,0.1-0.3,0.1S169.3,113.4,169.2,113.4z"/>
			<path class="st2" d="M172.9,113.3c-0.1-0.1-0.1-0.2-0.1-0.3v-9.6c0-0.1,0-0.2,0.1-0.3c0.1-0.1,0.2-0.1,0.4-0.1h5.7
				c0.1,0,0.2,0,0.3,0.1s0.1,0.2,0.1,0.3c0,0.1,0,0.2-0.1,0.3c-0.1,0.1-0.2,0.1-0.3,0.1h-5.2v4h4.9c0.1,0,0.2,0,0.3,0.1
				s0.1,0.2,0.1,0.3s0,0.2-0.1,0.3c-0.1,0.1-0.2,0.1-0.3,0.1h-4.9v4.1h5.2c0.1,0,0.2,0,0.3,0.1s0.1,0.2,0.1,0.3c0,0.1,0,0.2-0.1,0.3
				c-0.1,0.1-0.2,0.1-0.3,0.1h-5.7C173.1,113.4,173,113.4,172.9,113.3z"/>
		</g>
		<path class="st3" d="M184.9,108.8c-0.1-0.1-0.2-0.3-0.2-0.5s0.1-0.4,0.2-0.5c0.1-0.1,0.3-0.2,0.5-0.2s0.4,0.1,0.5,0.2
			s0.2,0.3,0.2,0.5s-0.1,0.4-0.2,0.5c-0.1,0.1-0.3,0.2-0.5,0.2S185.1,109,184.9,108.8z"/>
		<g>
			<path class="st2" d="M199.3,108.9c0.3,0.4,0.5,1,0.5,1.6c0,0.9-0.3,1.6-0.9,2.1c-0.6,0.5-1.5,0.7-2.6,0.7h-3.7
				c-0.1,0-0.3,0-0.4-0.1c-0.1-0.1-0.1-0.2-0.1-0.3v-9.6c0-0.1,0-0.2,0.1-0.3c0.1-0.1,0.2-0.1,0.4-0.1h3.6c1.1,0,1.9,0.2,2.5,0.7
				s0.9,1.2,0.9,2c0,0.6-0.1,1.1-0.4,1.5s-0.7,0.7-1.2,0.9C198.5,108.2,199,108.5,199.3,108.9z M193.1,107.7h3
				c0.8,0,1.5-0.2,1.9-0.5s0.7-0.8,0.7-1.5c0-1.3-0.9-2-2.6-2h-3L193.1,107.7L193.1,107.7z M198.3,112.1c0.4-0.3,0.6-0.8,0.6-1.5
				c0-1.4-0.9-2.1-2.6-2.1h-3.2v4.1h3.2C197.2,112.6,197.8,112.5,198.3,112.1z"/>
			<path class="st2" d="M210.9,113.1c0,0.1,0,0.2-0.1,0.3c-0.1,0.1-0.2,0.1-0.3,0.1s-0.2,0-0.2-0.1c-0.1,0-0.1-0.1-0.2-0.2l-1.1-2.6
				h-5.9l-1.1,2.6c-0.1,0.2-0.2,0.3-0.4,0.3c-0.1,0-0.2,0-0.3-0.1s-0.1-0.2-0.1-0.3c0-0.1,0-0.1,0-0.2l4.3-9.8
				c0.1-0.2,0.3-0.3,0.5-0.3c0.1,0,0.2,0,0.3,0.1s0.2,0.1,0.2,0.2l4.3,9.8C210.9,113,210.9,113,210.9,113.1z M203.5,109.8h5.1
				l-2.5-5.8L203.5,109.8z M204.4,102.1c-0.1,0-0.2,0-0.3-0.1s-0.1-0.2-0.1-0.3c0-0.1,0-0.2,0.1-0.3l1.4-1.5
				c0.1-0.1,0.3-0.2,0.5-0.2s0.3,0.1,0.5,0.2l1.4,1.5c0.1,0.1,0.1,0.2,0.1,0.3c0,0.1,0,0.2-0.1,0.3c-0.1,0.1-0.2,0.1-0.3,0.1
				s-0.2,0-0.3-0.1l-1.3-1.5l-1.3,1.5C204.6,102.1,204.5,102.1,204.4,102.1z"/>
			<path class="st2" d="M214.2,113.4c-0.1-0.1-0.1-0.2-0.1-0.3v-9.3h-3.4c-0.1,0-0.2,0-0.3-0.1s-0.1-0.2-0.1-0.3s0-0.2,0.1-0.3
				c0.1-0.1,0.2-0.1,0.3-0.1h7.8c0.1,0,0.2,0,0.3,0.1s0.1,0.2,0.1,0.3s0,0.2-0.1,0.3c-0.1,0.1-0.2,0.1-0.3,0.1h-3.4v9.3
				c0,0.1,0,0.3-0.1,0.3c-0.1,0.1-0.2,0.1-0.3,0.1C214.4,113.5,214.3,113.4,214.2,113.4z"/>
			<path class="st2" d="M220.4,113.4c-0.1-0.1-0.1-0.2-0.1-0.3v-9.7c0-0.1,0-0.3,0.1-0.3c0.1-0.1,0.2-0.1,0.3-0.1s0.3,0,0.3,0.1
				c0.1,0.1,0.1,0.2,0.1,0.3v9.7c0,0.1,0,0.3-0.1,0.3c-0.1,0.1-0.2,0.1-0.3,0.1S220.5,113.4,220.4,113.4z"/>
			<path class="st2" d="M233.6,103c0.1,0.1,0.1,0.2,0.1,0.3v9.7c0,0.1,0,0.3-0.1,0.3c-0.1,0.1-0.2,0.1-0.3,0.1s-0.2,0-0.3-0.1
				s-0.1-0.2-0.1-0.4v-8.3l-3.5,6.8c-0.1,0.2-0.3,0.3-0.5,0.3s-0.4-0.1-0.5-0.3l-3.6-6.8v8.2c0,0.1,0,0.3-0.1,0.4s-0.2,0.1-0.3,0.1
				s-0.3,0-0.3-0.1c-0.1-0.1-0.1-0.2-0.1-0.4v-9.7c0-0.1,0-0.3,0.1-0.3c0.1-0.1,0.2-0.1,0.4-0.1s0.3,0.1,0.4,0.3l4,7.7l3.9-7.7
				c0.1-0.2,0.3-0.3,0.4-0.3C233.4,102.8,233.5,102.9,233.6,103z"/>
			<path class="st2" d="M236.6,113.3c-0.1-0.1-0.1-0.2-0.1-0.3v-9.6c0-0.1,0-0.2,0.1-0.3c0.1-0.1,0.2-0.1,0.4-0.1h5.7
				c0.1,0,0.2,0,0.3,0.1s0.1,0.2,0.1,0.3c0,0.1,0,0.2-0.1,0.3c-0.1,0.1-0.2,0.1-0.3,0.1h-5.2v4h4.9c0.1,0,0.2,0,0.3,0.1
				s0.1,0.2,0.1,0.3s0,0.2-0.1,0.3c-0.1,0.1-0.2,0.1-0.3,0.1h-4.9v4.1h5.2c0.1,0,0.2,0,0.3,0.1s0.1,0.2,0.1,0.3c0,0.1,0,0.2-0.1,0.3
				c-0.1,0.1-0.2,0.1-0.3,0.1H237C236.8,113.4,236.7,113.4,236.6,113.3z"/>
			<path class="st2" d="M253.2,103c0.1,0.1,0.1,0.2,0.1,0.4v9.7c0,0.1,0,0.3-0.1,0.3c-0.1,0.1-0.2,0.1-0.3,0.1s-0.3-0.1-0.4-0.2
				l-6.5-8.8v8.5c0,0.1,0,0.3-0.1,0.3c-0.1,0.1-0.2,0.1-0.3,0.1s-0.3,0-0.3-0.1s-0.1-0.2-0.1-0.4v-9.7c0-0.1,0-0.3,0.1-0.3
				c0.1-0.1,0.2-0.1,0.4-0.1s0.3,0.1,0.4,0.2l6.5,8.8v-8.5c0-0.1,0-0.3,0.1-0.3c0.1-0.1,0.2-0.1,0.3-0.1
				C253,102.8,253.1,102.9,253.2,103z"/>
			<path class="st2" d="M258.7,113.4c-0.1-0.1-0.1-0.2-0.1-0.3v-9.3h-3.4c-0.1,0-0.2,0-0.3-0.1s-0.1-0.2-0.1-0.3s0-0.2,0.1-0.3
				c0.1-0.1,0.2-0.1,0.3-0.1h7.8c0.1,0,0.2,0,0.3,0.1c0.1,0.1,0.1,0.2,0.1,0.3s0,0.2-0.1,0.3c-0.1,0.1-0.2,0.1-0.3,0.1h-3.4v9.3
				c0,0.1,0,0.3-0.1,0.3c-0.1,0.1-0.2,0.1-0.3,0.1C258.9,113.5,258.8,113.4,258.7,113.4z"/>
		</g>
	</g>
	<g>
		<path class="st2" d="M93,42v1.4c0,5.3-4.3,9.6-9.6,9.6H62.7c-1.7,0-3.1-1.4-3.1-3.1c0-1.7,1.4-3.1,3.1-3.1h20.7
			c1.9,0,3.5-1.6,3.5-3.5v-1.4c0-7.4-6-13.4-13.4-13.4h-3.2c-7.4,0-13.4,6-13.4,13.4v16c0,7.4,6,13.4,13.4,13.4h13.1
			c1.7,0,3.1,1.4,3.1,3.1s-1.4,3.1-3.1,3.1H70.3c-10.7,0-19.5-8.7-19.5-19.5V42c0-10.7,8.7-19.5,19.5-19.5h3.2
			C84.2,22.4,93,31.2,93,42z M227.9,22.4c-1.7,0-3.1,1.4-3.1,3.1v48.9c0,1.7,1.4,3.1,3.1,3.1s3.1-1.4,3.1-3.1V25.5
			C231,23.8,229.6,22.4,227.9,22.4z M260.3,22.4c-1.7,0-3.1,1.4-3.1,3.1v21.4h-12.9h-7.6c-1.7,0-3.1,1.4-3.1,3.1
			c0,1.7,1.4,3.1,3.1,3.1h7.6h12.9v21.4c0,1.7,1.4,3.1,3.1,3.1s3.1-1.4,3.1-3.1v-49C263.4,23.8,262,22.4,260.3,22.4z M125,22.4
			h-11.9c-7.1,0-12.9,5.8-12.9,12.9v39c0,1.7,1.4,3.1,3.1,3.1s3.1-1.4,3.1-3.1v-39c0-3.8,3.1-6.8,6.8-6.8h11.9
			c1.7,0,3.1-1.4,3.1-3.1S126.7,22.4,125,22.4z"/>
		<path class="st2" d="M136.3,52.8l-6.1,4.1V54l6.1-4.1V52.8z M136.3,46.3l-6.1,4.1v3l6.1-4.1V46.3z M136.3,41.6
			c0-1,0.1-1.9,0.3-2.8l-6.4,4.3v3.3l6.1-4.1L136.3,41.6L136.3,41.6z M136.3,42.7l-6.1,4.1V50l6.1-4.1V42.7z M136.3,53.5l-6.1,4.1
			v0.7c0,0.7,0,1.3,0.1,2l6-4V53.5z M136.6,60.6l-5.4,3.6c0.2,0.7,0.5,1.3,0.7,1.9l5.2-3.5C136.9,62,136.7,61.3,136.6,60.6z
			 M141.2,68.4l-5.3,3.5c0.4,0.4,0.8,0.8,1.2,1.1l5.5-3.6C142.2,69.1,141.7,68.8,141.2,68.4z M139.1,66.2l-5.1,3.4
			c0.3,0.5,0.7,0.9,1.1,1.4l5.2-3.4C139.8,67.2,139.4,66.7,139.1,66.2z M149.4,28.6h2.5l7.5-5c-2-0.7-4.2-1.1-6.5-1.1h-3.5
			c-10.6,0-19.2,8.6-19.2,19.2V43l6.5-4.3C138,32.9,143.2,28.6,149.4,28.6z M136.3,58.3v-1.1l-5.9,3.9c0.1,0.8,0.3,1.5,0.5,2.2
			l5.5-3.7C136.4,59.2,136.3,58.7,136.3,58.3z M137.5,63.6l-5.1,3.4c0.3,0.6,0.6,1.1,0.9,1.6l5.1-3.4
			C138.1,64.8,137.8,64.2,137.5,63.6z M166.3,42v1.4l5.9-3.9c-0.1-0.7-0.2-1.4-0.4-2.1l-5.6,3.7C166.2,41.3,166.3,41.6,166.3,42z
			 M164,34.5l5.1-3.4c-0.4-0.7-0.9-1.3-1.5-1.9l-5.2,3.4C163,33.2,163.5,33.8,164,34.5z M165.3,37l5.2-3.4c-0.3-0.7-0.7-1.4-1.1-2
			l-5.1,3.4C164.7,35.6,165,36.3,165.3,37z M144.1,70.2l-5.7,3.8c0.4,0.3,0.9,0.6,1.4,0.9l6.1-4C145.2,70.6,144.6,70.4,144.1,70.2z
			 M162.1,32.2l5.2-3.4c-0.6-0.6-1.2-1.2-1.9-1.8l-5.4,3.6C160.7,31.1,161.4,31.6,162.1,32.2z M166.1,40l5.5-3.6
			c-0.2-0.7-0.5-1.4-0.7-2.1l-5.2,3.5C165.8,38.5,166,39.2,166.1,40z M139,49.9c0,0.3,0.1,0.6,0.2,0.9l6-4h-3.1
			C140.4,46.9,139,48.3,139,49.9z M155.7,46.9h-3.9l-9.2,6.1h3.9L155.7,46.9z M159.6,30.4l5.5-3.6c-0.7-0.6-1.5-1.1-2.4-1.6l-6,4
			C157.7,29.4,158.7,29.9,159.6,30.4z M141.4,52.9l9.1-6h-4.1l-6.9,4.6C139.9,52.2,140.5,52.7,141.4,52.9z M152.9,28.6
			c1.2,0,2.4,0.2,3.5,0.5l6.1-4c-0.9-0.5-1.9-1-3-1.4l-7.4,4.9H152.9z M160.9,46.9h-3.6l-9.2,6.1h3.6L160.9,46.9z M170.6,49
			l-5.8,3.8C167.2,52.3,169.2,50.9,170.6,49z M149.4,71.3c-0.5,0-1,0-1.5-0.1l-6.6,4.4c0.5,0.2,1,0.4,1.5,0.6l7.4-4.9H149.4z
			 M162.2,53l9.7-6.4c0.3-0.8,0.5-1.6,0.5-2.4l-13.3,8.9L162.2,53L162.2,53z M166,44.8c-0.5,1.2-1.8,2.1-3.2,2.1l-9.2,6.1h3.4
			l15.5-10.3v-0.8c0-0.5,0-0.9-0.1-1.4L166,44.8z M160.5,77.5h1.5l3.3-2.2c0.1-0.3,0.1-0.6,0.1-0.9c0-0.1,0-0.1,0-0.2L160.5,77.5z
			 M153.3,71.3l-8.4,5.6c0.6,0.1,1.1,0.2,1.7,0.3l8.9-5.9H153.3z M163.7,71.7l-8.7,5.8h1.8l7.8-5.2C164.3,72,164,71.8,163.7,71.7z
			 M158.7,71.3l-9.2,6.1h2l9.2-6.1H158.7z M204.1,29.7l5.7-3.8c-0.4-0.3-0.9-0.6-1.4-0.9l-6.1,4C203,29.2,203.6,29.5,204.1,29.7z
			 M209.2,49.9c0-0.3-0.1-0.6-0.2-0.9l-6,4h3.1C207.8,53,209.2,51.6,209.2,49.9z M194.9,28.6l8.4-5.6c-0.6-0.1-1.1-0.2-1.7-0.3
			l-8.9,5.9H194.9z M207,31.4l5.3-3.5c-0.4-0.4-0.8-0.8-1.2-1.1l-5.5,3.6C206,30.8,206.5,31.1,207,31.4z M189.4,28.6l9.2-6.1h-2
			l-9.2,6.1H189.4z M187.7,22.4h-1.5l-3.3,2.2c-0.1,0.3-0.1,0.6-0.1,0.9c0,0.1,0,0.1,0,0.2L187.7,22.4z M184.5,28.2l8.7-5.8h-1.8
			l-7.8,5.2C183.9,27.9,184.1,28.1,184.5,28.2z M198.8,28.6c0.5,0,1,0,1.5,0.1l6.6-4.4c-0.5-0.2-1-0.4-1.5-0.6l-7.4,4.9H198.8z
			 M208.7,48.4c-0.4-0.7-1.1-1.2-1.9-1.4l-9.1,6h4.1L208.7,48.4z M210.7,36.2l5.1-3.4c-0.3-0.6-0.6-1.1-0.9-1.6l-5.1,3.4
			C210.1,35.1,210.4,35.7,210.7,36.2z M211.9,41.6v1.1l5.9-3.9c-0.1-0.8-0.3-1.5-0.5-2.2l-5.5,3.7C211.8,40.7,211.9,41.2,211.9,41.6
			z M211.6,39.2l5.4-3.6c-0.2-0.7-0.5-1.3-0.7-1.9l-5.2,3.5C211.3,37.9,211.5,38.5,211.6,39.2z M209.1,33.7l5.1-3.4
			c-0.3-0.5-0.7-0.9-1.1-1.4l-5.2,3.4C208.4,32.7,208.8,33.2,209.1,33.7z M187.2,53h3.6l9.2-6.1h-3.6L187.2,53z M177.6,50.9l5.8-3.8
			C181,47.6,178.9,49,177.6,50.9z M205.6,46.9h-3.9l-9.2,6.1h3.9L205.6,46.9z M182.9,62.9l-5.2,3.4c0.3,0.7,0.7,1.4,1.1,2l5.1-3.4
			C183.5,64.3,183.1,63.6,182.9,62.9z M184.2,65.4l-5.1,3.4c0.4,0.7,0.9,1.3,1.5,1.9l5.2-3.4C185.2,66.7,184.7,66.1,184.2,65.4z
			 M188.6,69.5l-5.5,3.6c0.7,0.6,1.5,1.1,2.4,1.6l6-4C190.4,70.5,189.5,70,188.6,69.5z M186.1,67.7l-5.2,3.4
			c0.6,0.6,1.2,1.2,1.9,1.8l5.4-3.6C187.5,68.8,186.8,68.3,186.1,67.7z M182.1,59.9l-5.5,3.6c0.2,0.7,0.5,1.4,0.7,2.1l5.2-3.5
			C182.4,61.4,182.2,60.7,182.1,59.9z M185.4,53l9.2-6.1h-3.4l-15.5,10.3V58c0,0.5,0,0.9,0.1,1.4l6.3-4.2
			C182.7,53.9,184,53,185.4,53z M181.9,57.9v-1.4l-5.9,3.9c0.1,0.7,0.2,1.4,0.4,2.1l5.6-3.7C181.9,58.6,181.9,58.3,181.9,57.9z
			 M211.9,50l6.1-4.1V43l-6.1,4.1V50z M186,46.9l-9.7,6.4c-0.3,0.8-0.5,1.6-0.5,2.4l13.3-8.9L186,46.9L186,46.9z M211.9,53.6
			l6.1-4.1v-3l-6.1,4.1V53.6z M217.9,39.6l-6,4v2.7l6.1-4.1v-0.6C218,41,217.9,40.3,217.9,39.6z M211.9,57.2l6.1-4.1v-3.2l-6.1,4.1
			V57.2z M195.3,71.3c-1.2,0-2.4-0.2-3.5-0.5l-6.1,4c0.9,0.5,1.9,1,3,1.4l7.4-4.9H195.3z M198.8,71.3h-2.5l-7.5,5
			c2,0.7,4.2,1.1,6.5,1.1h3.5c10.6,0,19.2-8.6,19.2-19.2v-1.3l-6.5,4.3C210.1,67,205,71.3,198.8,71.3z M211.9,58.3
			c0,1-0.1,1.9-0.3,2.8l6.4-4.3v-3.3l-6.1,4.1L211.9,58.3L211.9,58.3z"/>
	</g>
	<g>
		<path class="st3" d="M219.2,89.6c0-1.4-1.1-2.5-2.5-2.5H33c-1.4,0-2.5,1.1-2.5,2.5s1.1,2.5,2.5,2.5h183.7
			C218.1,92.1,219.2,91,219.2,89.6z"/>
		<path class="st4" d="M281.1,87.1h-55c-1.4,0-2.5,1.1-2.5,2.5s1.1,2.5,2.5,2.5h55c1.4,0,2.5-1.1,2.5-2.5S282.5,87.1,281.1,87.1z"/>
	</g>
</g>
</svg>
